<svg xmlns="http://www.w3.org/2000/svg" width="512" height="512" viewBox="0 0 512 512">
<g>
<path d="M 219.68 501.85 C207.52,506.40 195.46,503.63 185.94,494.09 C176.22,484.36 176.63,487.41 176.02,420.50 C175.52,364.99 175.42,362.36 173.52,359.23 C171.29,355.54 164.86,352.00 160.40,352.00 C155.08,352.00 148.74,356.02 146.25,360.96 C144.08,365.27 144.00,366.37 144.00,393.67 C144.00,427.07 143.45,429.68 134.57,438.57 C121.77,451.36 102.99,451.16 89.93,438.09 C80.29,428.43 80.59,430.54 80.23,371.25 L 79.91 320.00 L 57.49 320.00 C30.33,320.00 27.01,319.17 17.92,310.08 C15.90,308.06 14.31,306.64 13.07,304.97 C8.48,298.81 8.48,289.24 8.50,233.93 C8.50,230.47 8.50,226.83 8.50,223.00 L 8.50 152.50 L 11.30 146.80 C14.67,139.93 22.18,132.87 28.76,130.40 C32.78,128.88 37.65,128.55 60.75,128.23 L 88.00 127.86 L 88.00 144.00 L 62.71 144.00 C38.48,144.00 37.24,144.09 32.96,146.25 C29.70,147.89 27.89,149.70 26.25,152.96 L 24.00 157.42 L 24.00 290.58 L 26.25 295.03 C29.74,301.96 34.22,303.96 46.19,303.98 L 55.89 304.00 L 56.19 282.53 C56.49,261.71 56.57,260.98 58.78,258.78 L 61.06 256.50 L 452.18 256.50 L 454.09 258.86 C455.84,261.02 456.00,263.04 456.00,282.61 L 456.00 304.00 L 466.11 304.00 C477.97,304.00 482.39,302.21 485.88,296.00 C487.98,292.26 488.00,291.64 488.00,224.00 L 488.00 155.77 L 485.82 151.89 C484.42,149.41 482.13,147.27 479.50,146.00 C475.43,144.03 473.33,144.00 337.68,144.00 L 200.00 144.00 L 200.00 127.97 L 339.75 128.23 C474.98,128.49 479.66,128.56 484.49,130.43 C491.47,133.12 499.10,140.99 501.85,148.32 C503.98,154.01 504.00,154.86 504.00,224.00 C504.00,293.14 503.98,293.99 501.85,299.68 C498.94,307.45 491.45,314.94 483.68,317.85 C478.40,319.82 476.02,320.00 454.96,320.00 L 432.00 320.00 L 432.00 378.96 C432.00,436.88 431.96,438.03 429.85,443.68 C426.94,451.45 419.45,458.94 411.68,461.85 C399.53,466.39 387.45,463.62 377.93,454.09 C369.01,445.16 368.72,443.82 368.06,408.50 C367.43,374.53 367.25,373.75 359.46,369.98 C354.15,367.41 350.45,367.48 344.96,370.25 C337.78,373.87 336.00,378.52 336.00,393.67 C336.00,409.22 334.10,415.03 326.57,422.57 C313.77,435.36 294.99,435.16 281.93,422.09 C275.05,415.19 273.00,409.88 272.29,397.00 C271.65,385.38 269.60,380.95 263.50,378.00 C258.15,375.41 254.47,375.47 248.96,378.25 C245.70,379.89 243.89,381.70 242.25,384.96 C240.02,389.39 240.00,389.77 240.00,433.67 C240.00,476.53 239.93,478.11 237.85,483.68 C234.94,491.45 227.45,498.94 219.68,501.85 ZM 200.50 485.73 C207.92,489.88 217.39,487.60 221.59,480.66 C223.38,477.70 223.53,474.50 224.00,431.00 L 224.50 384.50 L 227.30 378.80 C237.00,359.05 263.36,354.23 278.56,369.43 C285.39,376.26 288.00,383.14 288.00,394.33 C288.00,400.89 288.46,403.48 290.25,407.03 C295.91,418.24 311.83,418.88 317.77,408.13 C319.43,405.12 319.85,402.10 320.22,390.50 C320.62,377.83 320.92,375.96 323.38,370.80 C332.78,351.09 359.36,346.23 374.56,361.43 C383.45,370.32 384.00,372.93 384.00,406.33 C384.00,433.64 384.07,434.72 386.25,439.03 C391.99,450.40 406.40,450.95 413.73,440.08 L 416.00 436.70 L 416.00 320.00 L 96.00 320.00 L 96.00 369.29 C96.00,418.41 96.01,418.59 98.25,423.03 C103.84,434.12 117.78,434.96 125.41,424.68 C127.39,422.00 127.53,420.32 128.01,391.18 L 128.53 360.50 L 131.31 354.80 C138.62,339.84 155.79,332.94 171.97,338.44 C179.38,340.97 186.92,348.51 189.85,356.32 C191.96,361.96 192.00,363.18 192.00,418.33 L 192.00 474.58 L 194.25 479.03 C195.73,481.97 197.86,484.26 200.50,485.73 ZM 72.00 272.00 L 72.00 304.00 L 440.00 304.00 L 440.00 272.00 ZM 456.13 234.96 L 451.09 240.00 L 382.11 240.00 L 379.31 237.59 L 376.50 235.18 L 376.18 217.89 C375.70,191.66 378.05,182.35 387.62,172.64 C393.94,166.23 399.42,163.23 408.14,161.38 C417.03,159.50 426.57,160.64 434.61,164.53 C441.13,167.69 449.34,176.37 452.80,183.75 C455.45,189.39 455.51,189.95 455.82,212.23 ZM 263.00 108.50 C258.35,113.18 254.29,117.00 253.99,117.00 C253.68,117.00 251.09,114.63 248.22,111.73 L 243.01 106.45 L 253.51 95.99 L 264.00 85.54 L 264.00 72.00 L 251.53 72.00 L 240.77 82.72 L 230.02 93.45 L 218.98 82.55 L 228.22 73.28 L 237.46 64.00 L 228.22 54.72 L 218.98 45.45 L 224.50 40.00 L 230.02 34.55 L 240.77 45.28 L 251.53 56.00 L 264.00 56.00 L 264.00 42.53 L 242.98 21.45 L 248.50 16.00 L 254.03 10.54 L 263.25 19.76 L 272.47 28.99 L 281.73 19.77 L 290.99 10.55 L 302.02 21.45 L 280.00 43.53 L 280.00 56.00 L 293.47 56.00 L 304.23 45.28 L 314.98 34.55 L 320.50 40.00 L 326.02 45.45 L 307.54 64.00 L 316.78 73.28 L 326.02 82.55 L 320.50 88.00 L 314.98 93.45 L 304.23 82.72 L 293.47 72.00 L 280.00 72.00 L 280.00 84.47 L 291.01 95.51 L 302.02 106.55 L 290.99 117.44 L 282.22 108.72 C277.40,103.93 273.01,100.00 272.46,100.00 C271.91,100.00 267.65,103.82 263.00,108.50 ZM 135.00 172.50 C130.35,177.18 126.29,181.00 125.99,181.00 C125.68,181.00 123.09,178.63 120.22,175.73 L 115.01 170.45 L 125.51 159.99 L 136.00 149.54 L 136.00 136.00 L 123.53 136.00 L 112.77 146.72 L 102.02 157.45 L 96.50 152.00 L 90.98 146.55 L 109.46 128.00 L 100.22 118.72 L 90.98 109.45 L 96.50 104.00 L 102.02 98.55 L 112.77 109.28 L 123.53 120.00 L 136.00 120.00 L 136.00 106.53 L 125.49 95.99 L 114.98 85.45 L 126.03 74.54 L 144.47 92.99 L 153.73 83.77 L 162.99 74.55 L 168.50 80.00 L 174.02 85.45 L 163.01 96.49 L 152.00 107.53 L 152.00 120.00 L 165.47 120.00 L 176.23 109.28 L 186.98 98.55 L 198.02 109.45 L 188.78 118.72 L 179.54 128.00 L 188.78 137.28 L 198.02 146.55 L 186.98 157.45 L 165.47 136.00 L 152.00 136.00 L 152.00 148.47 L 163.01 159.51 L 174.02 170.55 L 168.50 176.00 L 162.99 181.44 L 154.22 172.72 C149.40,167.93 145.01,164.00 144.46,164.00 C143.91,164.00 139.65,167.82 135.00,172.50 ZM 484.62 396.43 C477.44,400.87 469.40,401.17 462.02,397.29 C437.02,384.16 449.99,347.29 477.58,353.02 C498.25,357.31 502.77,385.21 484.62,396.43 ZM 316.62 492.43 C309.44,496.87 301.40,497.17 294.02,493.29 C269.02,480.16 281.99,443.29 309.58,449.02 C330.25,453.31 334.77,481.21 316.62,492.43 ZM 52.62 380.43 C45.44,384.87 37.40,385.17 30.02,381.29 C5.02,368.16 17.99,331.29 45.58,337.02 C66.25,341.31 70.77,369.21 52.62,380.43 ZM 120.00 224.00 L 120.00 240.00 L 56.00 240.00 L 56.00 224.00 ZM 392.00 208.00 L 392.00 224.00 L 440.00 224.00 L 440.00 208.00 ZM 394.00 191.08 C394.00,191.61 403.47,192.00 416.60,192.00 L 439.20 192.00 L 436.74 187.75 C430.45,176.90 415.67,173.05 404.45,179.35 C400.83,181.38 394.00,189.04 394.00,191.08 ZM 35.27 366.03 C40.08,370.52 48.00,366.77 48.00,360.00 C48.00,357.03 47.40,355.67 45.37,354.07 C40.98,350.62 35.05,352.05 32.98,357.06 C31.61,360.36 32.36,363.33 35.27,366.03 ZM 467.27 382.03 C472.08,386.52 480.00,382.77 480.00,376.00 C480.00,373.03 479.40,371.67 477.37,370.07 C472.98,366.62 467.05,368.05 464.98,373.06 C463.61,376.36 464.36,379.33 467.27,382.03 ZM 299.27 478.03 C304.08,482.52 312.00,478.77 312.00,472.00 C312.00,469.03 311.40,467.67 309.37,466.07 C304.98,462.62 299.05,464.05 296.98,469.06 C295.61,472.36 296.36,475.33 299.27,478.03 Z" fill="rgb(0,0,0)"/>
<path d="M 0.00 256.00 L 0.00 0.00 L 256.00 0.00 L 512.00 0.00 L 512.00 256.00 L 512.00 512.00 L 256.00 512.00 L 0.00 512.00 L 0.00 256.00 ZM 219.68 501.85 C227.45,498.94 234.94,491.45 237.85,483.68 C239.93,478.11 240.00,476.53 240.00,433.67 C240.00,389.77 240.02,389.39 242.25,384.96 C243.89,381.70 245.70,379.89 248.96,378.25 C254.47,375.47 258.15,375.41 263.50,378.00 C269.60,380.95 271.65,385.38 272.29,397.00 C273.00,409.88 275.05,415.19 281.93,422.09 C294.99,435.16 313.77,435.36 326.57,422.57 C334.10,415.03 336.00,409.22 336.00,393.67 C336.00,378.52 337.78,373.87 344.96,370.25 C350.45,367.48 354.15,367.41 359.46,369.98 C367.25,373.75 367.43,374.53 368.06,408.50 C368.72,443.82 369.01,445.16 377.93,454.09 C387.45,463.62 399.53,466.39 411.68,461.85 C419.45,458.94 426.94,451.45 429.85,443.68 C431.96,438.03 432.00,436.88 432.00,378.96 L 432.00 320.00 L 454.96 320.00 C476.02,320.00 478.40,319.82 483.68,317.85 C491.45,314.94 498.94,307.45 501.85,299.68 C503.98,293.99 504.00,293.14 504.00,224.00 C504.00,154.86 503.98,154.01 501.85,148.32 C499.10,140.99 491.47,133.12 484.49,130.43 C479.66,128.56 474.98,128.49 339.75,128.23 L 200.00 127.97 L 200.00 135.98 L 200.00 144.00 L 337.68 144.00 C473.33,144.00 475.43,144.03 479.50,146.00 C482.13,147.27 484.42,149.41 485.82,151.89 L 488.00 155.77 L 488.00 224.00 C488.00,291.64 487.98,292.26 485.88,296.00 C482.39,302.21 477.97,304.00 466.11,304.00 L 456.00 304.00 L 456.00 282.61 C456.00,263.04 455.84,261.02 454.09,258.86 L 452.18 256.50 L 256.62 256.50 L 61.06 256.50 L 58.78 258.78 C56.57,260.98 56.49,261.71 56.19,282.53 L 55.89 304.00 L 46.19 303.98 C34.22,303.96 29.74,301.96 26.25,295.03 L 24.00 290.58 L 24.00 224.00 L 24.00 157.42 L 26.25 152.96 C27.89,149.70 29.70,147.89 32.96,146.25 C37.24,144.09 38.48,144.00 62.71,144.00 L 88.00 144.00 L 88.00 135.93 L 88.00 127.86 L 60.75 128.23 C37.65,128.55 32.78,128.88 28.76,130.40 C22.18,132.87 14.67,139.93 11.30,146.80 L 8.50 152.50 L 8.50 223.00 C8.50,304.67 8.01,300.17 17.92,310.08 C27.01,319.17 30.33,320.00 57.49,320.00 L 79.91 320.00 L 80.23 371.25 C80.59,430.54 80.29,428.43 89.93,438.09 C102.99,451.16 121.77,451.36 134.57,438.57 C143.45,429.68 144.00,427.07 144.00,393.67 C144.00,366.37 144.08,365.27 146.25,360.96 C148.74,356.02 155.08,352.00 160.40,352.00 C164.86,352.00 171.29,355.54 173.52,359.23 C175.42,362.36 175.52,364.99 176.02,420.50 C176.63,487.41 176.22,484.36 185.94,494.09 C195.46,503.63 207.52,506.40 219.68,501.85 ZM 316.62 492.43 C334.77,481.21 330.25,453.31 309.58,449.02 C281.99,443.29 269.02,480.16 294.02,493.29 C301.40,497.17 309.44,496.87 316.62,492.43 ZM 484.62 396.43 C502.77,385.21 498.25,357.31 477.58,353.02 C449.99,347.29 437.02,384.16 462.02,397.29 C469.40,401.17 477.44,400.87 484.62,396.43 ZM 52.62 380.43 C70.77,369.21 66.25,341.31 45.58,337.02 C17.99,331.29 5.02,368.16 30.02,381.29 C37.40,385.17 45.44,384.87 52.62,380.43 ZM 120.00 232.00 L 120.00 224.00 L 88.00 224.00 L 56.00 224.00 L 56.00 232.00 L 56.00 240.00 L 88.00 240.00 L 120.00 240.00 L 120.00 232.00 ZM 453.61 237.48 L 456.13 234.96 L 455.82 212.23 C455.51,189.95 455.45,189.39 452.80,183.75 C449.34,176.37 441.13,167.69 434.61,164.53 C426.57,160.64 417.03,159.50 408.14,161.38 C399.42,163.23 393.94,166.23 387.62,172.64 C378.05,182.35 375.70,191.66 376.18,217.89 L 376.50 235.18 L 379.31 237.59 L 382.11 240.00 L 416.60 240.00 L 451.09 240.00 L 453.61 237.48 ZM 135.00 172.50 C139.65,167.82 143.91,164.00 144.46,164.00 C145.01,164.00 149.40,167.93 154.22,172.72 L 162.99 181.44 L 168.50 176.00 L 174.02 170.55 L 163.01 159.51 L 152.00 148.47 L 152.00 142.23 L 152.00 136.00 L 158.73 136.00 L 165.47 136.00 L 176.23 146.72 L 186.98 157.45 L 192.50 152.00 L 198.02 146.55 L 188.78 137.28 L 179.54 128.00 L 188.78 118.72 L 198.02 109.45 L 192.50 104.00 L 186.98 98.55 L 176.23 109.28 L 165.47 120.00 L 158.73 120.00 L 152.00 120.00 L 152.00 113.77 L 152.00 107.53 L 163.01 96.49 L 174.02 85.45 L 168.50 80.00 L 162.99 74.55 L 153.73 83.77 L 144.47 92.99 L 135.25 83.76 L 126.03 74.54 L 120.50 80.00 L 114.98 85.45 L 125.49 95.99 L 136.00 106.53 L 136.00 113.27 L 136.00 120.00 L 129.77 120.00 L 123.53 120.00 L 112.77 109.28 L 102.02 98.55 L 96.50 104.00 L 90.98 109.45 L 100.22 118.72 L 109.46 128.00 L 100.22 137.28 L 90.98 146.55 L 96.50 152.00 L 102.02 157.45 L 112.77 146.72 L 123.53 136.00 L 129.77 136.00 L 136.00 136.00 L 136.00 142.77 L 136.00 149.54 L 125.51 159.99 L 115.01 170.45 L 120.22 175.73 C123.09,178.63 125.68,181.00 125.99,181.00 C126.29,181.00 130.35,177.18 135.00,172.50 ZM 263.00 108.50 C267.65,103.82 271.91,100.00 272.46,100.00 C273.01,100.00 277.40,103.93 282.22,108.72 L 290.99 117.44 L 296.50 112.00 L 302.02 106.55 L 291.01 95.51 L 280.00 84.47 L 280.00 78.23 L 280.00 72.00 L 286.73 72.00 L 293.47 72.00 L 304.23 82.72 L 314.98 93.45 L 320.50 88.00 L 326.02 82.55 L 316.78 73.28 L 307.54 64.00 L 316.78 54.72 L 326.02 45.45 L 320.50 40.00 L 314.98 34.55 L 304.23 45.28 L 293.47 56.00 L 286.73 56.00 L 280.00 56.00 L 280.00 49.77 L 280.00 43.53 L 291.01 32.49 L 302.02 21.45 L 296.50 16.00 L 290.99 10.55 L 281.73 19.77 L 272.47 28.99 L 263.25 19.76 L 254.03 10.54 L 248.50 16.00 L 242.98 21.45 L 253.49 31.99 L 264.00 42.53 L 264.00 49.27 L 264.00 56.00 L 257.77 56.00 L 251.53 56.00 L 240.77 45.28 L 230.02 34.55 L 224.50 40.00 L 218.98 45.45 L 228.22 54.72 L 237.46 64.00 L 228.22 73.28 L 218.98 82.55 L 224.50 88.00 L 230.02 93.45 L 240.77 82.72 L 251.53 72.00 L 257.77 72.00 L 264.00 72.00 L 264.00 78.77 L 264.00 85.54 L 253.51 95.99 L 243.01 106.45 L 248.22 111.73 C251.09,114.63 253.68,117.00 253.99,117.00 C254.29,117.00 258.35,113.18 263.00,108.50 ZM 200.50 485.73 C197.86,484.26 195.73,481.97 194.25,479.03 L 192.00 474.58 L 192.00 418.33 C192.00,363.18 191.96,361.96 189.85,356.32 C186.92,348.51 179.38,340.97 171.97,338.44 C155.79,332.94 138.62,339.84 131.31,354.80 L 128.53 360.50 L 128.01 391.18 C127.53,420.32 127.39,422.00 125.41,424.68 C117.78,434.96 103.84,434.12 98.25,423.03 C96.01,418.59 96.00,418.41 96.00,369.29 L 96.00 320.00 L 256.00 320.00 L 416.00 320.00 L 416.00 378.35 L 416.00 436.70 L 413.73 440.08 C406.40,450.95 391.99,450.40 386.25,439.03 C384.07,434.72 384.00,433.64 384.00,406.33 C384.00,372.93 383.45,370.32 374.56,361.43 C359.36,346.23 332.78,351.09 323.38,370.80 C320.92,375.96 320.62,377.83 320.22,390.50 C319.85,402.10 319.43,405.12 317.77,408.13 C311.83,418.88 295.91,418.24 290.25,407.03 C288.46,403.48 288.00,400.89 288.00,394.33 C288.00,383.14 285.39,376.26 278.56,369.43 C263.36,354.23 237.00,359.05 227.30,378.80 L 224.50 384.50 L 224.00 431.00 C223.53,474.50 223.38,477.70 221.59,480.66 C217.39,487.60 207.92,489.88 200.50,485.73 ZM 72.00 288.00 L 72.00 272.00 L 256.00 272.00 L 440.00 272.00 L 440.00 288.00 L 440.00 304.00 L 256.00 304.00 L 72.00 304.00 L 72.00 288.00 ZM 299.27 478.03 C296.36,475.33 295.61,472.36 296.98,469.06 C299.05,464.05 304.98,462.62 309.37,466.07 C311.40,467.67 312.00,469.03 312.00,472.00 C312.00,478.77 304.08,482.52 299.27,478.03 ZM 467.27 382.03 C464.36,379.33 463.61,376.36 464.98,373.06 C467.05,368.05 472.98,366.62 477.37,370.07 C479.40,371.67 480.00,373.03 480.00,376.00 C480.00,382.77 472.08,386.52 467.27,382.03 ZM 35.27 366.03 C32.36,363.33 31.61,360.36 32.98,357.06 C35.05,352.05 40.98,350.62 45.37,354.07 C47.40,355.67 48.00,357.03 48.00,360.00 C48.00,366.77 40.08,370.52 35.27,366.03 ZM 392.00 216.00 L 392.00 208.00 L 416.00 208.00 L 440.00 208.00 L 440.00 216.00 L 440.00 224.00 L 416.00 224.00 L 392.00 224.00 L 392.00 216.00 ZM 394.00 191.08 C394.00,189.04 400.83,181.38 404.45,179.35 C415.67,173.05 430.45,176.90 436.74,187.75 L 439.20 192.00 L 416.60 192.00 C403.47,192.00 394.00,191.61 394.00,191.08 Z" fill="rgb(254,254,254)"/>
</g>
</svg>